<?xml version="1.0" encoding="UTF-8" standalone="no"?>
<!DOCTYPE svg PUBLIC "-//W3C//DTD SVG 1.1//EN"
 "http://www.w3.org/Graphics/SVG/1.1/DTD/svg11.dtd">
<!-- Generated by graphviz version 2.28.0 (20120617.1845)
 -->
<!-- Title: G Pages: 1 -->
<svg width="548pt" height="130pt"
 viewBox="0.00 0.00 548.00 130.00" xmlns="http://www.w3.org/2000/svg" xmlns:xlink="http://www.w3.org/1999/xlink">
<g id="graph1" class="graph" transform="scale(1 1) rotate(0) translate(4 126)">
<title>G</title>
<polygon fill="white" stroke="white" points="-4,5 -4,-126 545,-126 545,5 -4,5"/>
<g id="graph2" class="cluster"><title>cluster_</title>
<polyline fill="none" stroke="gray" points="346,-8 520,-8 "/>
<path fill="none" stroke="gray" d="M520,-8C526,-8 532,-14 532,-20"/>
<polyline fill="none" stroke="gray" points="532,-20 532,-102 "/>
<path fill="none" stroke="gray" d="M532,-102C532,-108 526,-114 520,-114"/>
<polyline fill="none" stroke="gray" points="520,-114 346,-114 "/>
<path fill="none" stroke="gray" d="M346,-114C340,-114 334,-108 334,-102"/>
<polyline fill="none" stroke="gray" points="334,-102 334,-20 "/>
<path fill="none" stroke="gray" d="M334,-20C334,-14 340,-8 346,-8"/>
</g>
<!-- \\ValidarIdentificacion -->
<g id="node2" class="node"><title>\\ValidarIdentificacion</title>
<a xlink:href="validadores.php.ValidarIdentificacion.html" xlink:title="ValidarIdentificacion" target="_parent">
<polygon fill="none" stroke="black" points="510.123,-106 355.877,-106 355.877,-70 510.123,-70 510.123,-106"/>
<text text-anchor="middle" x="433" y="-83.6" font-family="Courier,monospace" font-size="11.00">ValidarIdentificacion</text>
</a>
</g>
<!-- \\ValidarIdenfiticacionTest -->
<g id="node3" class="node"><title>\\ValidarIdenfiticacionTest</title>
<a xlink:href="ValidarIdentificacionTest.html" xlink:title="ValidarIdenfiticacionTest" target="_parent">
<polygon fill="none" stroke="black" points="523.527,-52 342.473,-52 342.473,-16 523.527,-16 523.527,-52"/>
<text text-anchor="middle" x="433" y="-29.6" font-family="Courier,monospace" font-size="11.00">ValidarIdenfiticacionTest</text>
</a>
</g>
<!-- PHPUnit_Framework_TestCase -->
<g id="node5" class="node"><title>PHPUnit_Framework_TestCase</title>
<ellipse fill="none" stroke="black" cx="135" cy="-34" rx="134.636" ry="18"/>
<text text-anchor="middle" x="135" y="-28.4" font-family="Times,serif" font-size="14.00" fill="gray">PHPUnit_Framework_TestCase</text>
</g>
<!-- \\ValidarIdenfiticacionTest&#45;&gt;PHPUnit_Framework_TestCase -->
<g id="edge3" class="edge"><title>\\ValidarIdenfiticacionTest&#45;&gt;PHPUnit_Framework_TestCase</title>
<path fill="none" stroke="black" d="M342.387,-34C322.63,-34 301.219,-34 279.922,-34"/>
<polygon fill="none" stroke="black" points="279.818,-30.5001 269.818,-34 279.818,-37.5001 279.818,-30.5001"/>
</g>
</g>
</svg>
